<?xml version="1.0" encoding="UTF-8" standalone="no"?>
<svg
   xmlns:dc="http://purl.org/dc/elements/1.1/"
   xmlns:cc="http://creativecommons.org/ns#"
   xmlns:rdf="http://www.w3.org/1999/02/22-rdf-syntax-ns#"
   xmlns:svg="http://www.w3.org/2000/svg"
   xmlns="http://www.w3.org/2000/svg"
   xmlns:sodipodi="http://sodipodi.sourceforge.net/DTD/sodipodi-0.dtd"
   xmlns:inkscape="http://www.inkscape.org/namespaces/inkscape"
   class="leaf"
   version="1.1"
   id="Layer_1"
   x="0px"
   y="0px"
   viewBox="0 0 60 60"
   enable-background="new 0 0 400 400"
   xml:space="preserve"
   inkscape:version="0.48.4 r9939"
   width="100%"
   height="100%"
   sodipodi:docname="logo-filled.svg"
   inkscape:export-filename="C:\Users\hal9000\Development\stem-assets\256\logo-filled.png"
   inkscape:export-xdpi="384"
   inkscape:export-ydpi="384"><metadata
   id="metadata3033"><rdf:RDF><cc:Work
       rdf:about=""><dc:format>image/svg+xml</dc:format><dc:type
         rdf:resource="http://purl.org/dc/dcmitype/StillImage" /><dc:title></dc:title></cc:Work></rdf:RDF></metadata><defs
   id="defs3031" /><sodipodi:namedview
   pagecolor="#ffffff"
   bordercolor="#666666"
   borderopacity="1"
   objecttolerance="10"
   gridtolerance="10"
   guidetolerance="10"
   inkscape:pageopacity="0"
   inkscape:pageshadow="2"
   inkscape:window-width="1920"
   inkscape:window-height="1017"
   id="namedview3029"
   showgrid="false"
   inkscape:zoom="5.8689863"
   inkscape:cx="54.159408"
   inkscape:cy="24.210083"
   inkscape:window-x="-8"
   inkscape:window-y="-8"
   inkscape:window-maximized="1"
   inkscape:current-layer="g3811"
   fit-margin-top="2"
   fit-margin-left="2"
   fit-margin-right="2"
   fit-margin-bottom="2" />
	<g
   id="g3011"
   transform="translate(0,-340)">
		<path
   sodipodi:type="arc"
   style="fill:#808080;stroke:#000000;stroke-opacity:0"
   id="path3809"
   sodipodi:cx="54.939758"
   sodipodi:cy="241.9277"
   sodipodi:rx="156.62651"
   sodipodi:ry="156.62651"
   d="m 211.56627,241.9277 a 156.62651,156.62651 0 1 1 -313.25302,0 156.62651,156.62651 0 1 1 313.25302,0 z"
   transform="matrix(0.1699694,0,0,0.1699694,20.661922,328.87969)" />
		
		
		
		
		
		
		<g
   id="g3811"
   transform="matrix(0.14814815,0,0,0.14814815,-1.2528189,340.00741)"><path
     style="fill:#4fd39a;stroke:#000002;stroke-width:8;stroke-miterlimit:10"
     inkscape:connector-curvature="0"
     id="path3013"
     d="m 119.1,270.2 c 0,0 29.9,-38.2 16.4,-77.7 -13.5,-39.5 -44.4,-67 -44.4,-67 0,0 -18.4,28 -22.6,61.3 0.1,0 -7.6,42.1 50.6,83.4 z"
     stroke-miterlimit="10" /><path
     style="fill:#4fd39a;stroke:#000002;stroke-width:8;stroke-miterlimit:10"
     inkscape:connector-curvature="0"
     id="path3015"
     d="m 221.3,227.4 c 0,0 8.3,-71.6 132.4,-51.1 0,0 -77.8,98.2 -132.4,51.1 z"
     stroke-miterlimit="10" /><path
     style="fill:none;stroke:#000002;stroke-width:8;stroke-miterlimit:10"
     inkscape:connector-curvature="0"
     id="path3017"
     d="M 176.3,394.2 C 175.5,379.5 173,363 168.1,345.1 148.7,275.7 221.4,227.3 221.4,227.3"
     stroke-miterlimit="10" /><path
     style="fill:#4fd39a;stroke:#000002;stroke-width:8;stroke-miterlimit:10"
     inkscape:connector-curvature="0"
     id="path3019"
     d="m 184,118 c 0,0 41.8,-81.1 -85.1,-107.3 -0.1,0.1 4,119.8 85.1,107.3 z"
     stroke-miterlimit="10" /><path
     style="fill:none;stroke:#000002;stroke-width:8;stroke-miterlimit:10"
     inkscape:connector-curvature="0"
     id="path3021"
     d="m 168,345.3 c 0,0 -15.1,-57.4 13.6,-131.3 28.7,-73.9 1.4,-99 1.4,-99"
     stroke-miterlimit="10" /><path
     style="fill:#4fd39a;stroke:#000002;stroke-width:8;stroke-miterlimit:10;fill-opacity:0"
     inkscape:connector-curvature="0"
     id="path3023"
     d="m 170.4,354.7 c 0,0 -3.1,-32.8 -26.6,-48.9 -23.5,-16.1 -24.1,-36 -24.1,-36"
     stroke-miterlimit="10" /><path
     style="fill:none;stroke:#000002;stroke-width:8;stroke-miterlimit:10"
     inkscape:connector-curvature="0"
     id="path3025"
     d="m 189.7,189.2 c 0,0 11.2,-58 31.6,-63.7"
     stroke-miterlimit="10" /><path
     style="fill:#4fd39a;stroke:#000002;stroke-width:8;stroke-miterlimit:10"
     inkscape:connector-curvature="0"
     id="path3027"
     d="m 218,127.5 c 0,0 -20.2,-69.6 105.4,-96.4 0,0 -19.2,105.1 -105.4,96.4 z"
     stroke-miterlimit="10" /></g>
	</g>
</svg>